<svg width="197" height="80" viewBox="0 0 197 80" fill="none" xmlns="http://www.w3.org/2000/svg">
<path fill-rule="evenodd" clip-rule="evenodd" d="M151.496 6.55756C151.496 2.94863 148.547 0 144.938 0C141.99 0 140.02 1.96955 139.144 3.27878L122.59 28.1205C120.949 11.7236 109.942 0.113858 92.7968 0.113858C85.5789 0.113858 78.1447 2.61848 71.2684 6.67142C66.5665 2.73233 60.453 0.113858 52.1422 0.113858C29.7372 0.113858 -3.05066 29.2927 0.228119 78.2695H13.3546C10.0758 33.8921 37.6153 12.1474 52.1536 12.1474C55.5348 12.1474 58.2671 13.0241 60.5668 14.4471C49.1935 24.4998 41.1104 38.1728 41.1104 49.9673C41.1104 61.7618 48.5446 69.196 58.8136 69.196C72.7939 69.196 83.5069 53.1208 83.5069 36.078C83.5069 31.046 82.3001 23.1792 78.5887 16.0752C83.0743 13.5591 87.8786 12.1361 92.7968 12.1361H92.8082C111.49 12.1361 120.348 43.0682 87.2297 78.2582H102.633L102.643 78.2468H104.489L138.37 27.4256V73.4424C138.37 77.0514 141.318 80 144.927 80C147.443 80 149.413 78.4631 150.722 76.6074L182.963 27.6533V78.1443H196.078V6.55756C196.078 2.94863 193.13 0 189.521 0C186.902 0 185.047 1.30924 183.624 3.49509L151.496 52.2328V6.55756ZM70.3918 36.8408C70.3918 49.1931 65.041 57.8227 60.009 57.8227C56.2862 57.8227 54.2142 54.8741 54.2142 50.2861C54.2142 42.9657 59.6788 32.2527 67.9896 24.0558C69.7315 28.53 70.3918 33.3457 70.3918 36.8408Z" fill="white"/>
</svg>
